<svg width="22" height="22" viewBox="0 0 22 22" fill="none" xmlns="http://www.w3.org/2000/svg">
<path d="M14.668 2.75V6.41667M7.33464 2.75V6.41667M3.66797 10.0833H18.3346M3.66797 6.41667C3.66797 5.93044 3.86112 5.46412 4.20494 5.1203C4.54876 4.77649 5.01507 4.58333 5.5013 4.58333H16.5013C16.9875 4.58333 17.4538 4.77649 17.7977 5.1203C18.1415 5.46412 18.3346 5.93044 18.3346 6.41667V17.4167C18.3346 17.9029 18.1415 18.3692 17.7977 18.713C17.4538 19.0568 16.9875 19.25 16.5013 19.25H5.5013C5.01507 19.25 4.54876 19.0568 4.20494 18.713C3.86112 18.3692 3.66797 17.9029 3.66797 17.4167V6.41667ZM7.33464 13.75H9.16797V15.5833H7.33464V13.75Z" stroke="#666666" stroke-width="1.83333" stroke-linecap="round" stroke-linejoin="round"/>
</svg>
