<svg width="16" height="18" viewBox="0 0 16 18" fill="none" xmlns="http://www.w3.org/2000/svg">
<path d="M1.33203 4.83333H14.6654M6.33203 8.16667V13.1667M9.66536 8.16667V13.1667M2.16536 4.83333L2.9987 14.8333C2.9987 15.2754 3.17429 15.6993 3.48685 16.0118C3.79941 16.3244 4.22334 16.5 4.66536 16.5H11.332C11.7741 16.5 12.198 16.3244 12.5105 16.0118C12.8231 15.6993 12.9987 15.2754 12.9987 14.8333L13.832 4.83333M5.4987 4.83333V2.33333C5.4987 2.11232 5.5865 1.90036 5.74278 1.74408C5.89906 1.5878 6.11102 1.5 6.33203 1.5H9.66536C9.88638 1.5 10.0983 1.5878 10.2546 1.74408C10.4109 1.90036 10.4987 2.11232 10.4987 2.33333V4.83333" stroke="black" stroke-width="1.66667" stroke-linecap="round" stroke-linejoin="round"/>
</svg>
