<svg width="22" height="22" viewBox="0 0 22 22" fill="none" xmlns="http://www.w3.org/2000/svg">
<path d="M14.6667 13.75C12.6408 14.9719 9.35733 14.9719 7.33333 13.75M17.4178 7.98417L12.5292 4.18184C12.1002 3.84809 11.5722 3.66689 11.0286 3.66689C10.4851 3.66689 9.95707 3.84809 9.52806 4.18184L4.63856 7.98417C4.34472 8.21268 4.10698 8.50532 3.94351 8.83974C3.78003 9.17416 3.69514 9.54152 3.69531 9.91376V16.5138C3.69531 17 3.88847 17.4663 4.23228 17.8101C4.5761 18.1539 5.04242 18.3471 5.52865 18.3471H16.5286C17.0149 18.3471 17.4812 18.1539 17.825 17.8101C18.1688 17.4663 18.362 17 18.362 16.5138V9.91376C18.362 9.15934 18.0136 8.44709 17.4178 7.98417Z" stroke="black" stroke-width="1.83333" stroke-linecap="round" stroke-linejoin="round"/>
</svg>
