<svg width="16" height="18" viewBox="0 0 16 18" fill="none" xmlns="http://www.w3.org/2000/svg">
<path d="M5.5026 8.16666C5.5026 8.8297 5.766 9.46558 6.23484 9.93442C6.70368 10.4033 7.33956 10.6667 8.0026 10.6667C8.66565 10.6667 9.30153 10.4033 9.77037 9.93442C10.2392 9.46558 10.5026 8.8297 10.5026 8.16666C10.5026 7.50362 10.2392 6.86773 9.77037 6.39889C9.30153 5.93005 8.66565 5.66666 8.0026 5.66666C7.33956 5.66666 6.70368 5.93005 6.23484 6.39889C5.766 6.86773 5.5026 7.50362 5.5026 8.16666Z" stroke="#666666" stroke-width="1.66667" stroke-linecap="round" stroke-linejoin="round"/>
<path d="M12.7168 12.8808L9.18094 16.4167C8.86843 16.7289 8.44476 16.9042 8.00302 16.9042C7.56129 16.9042 7.13762 16.7289 6.82511 16.4167L3.28844 12.8808C2.35612 11.9485 1.72122 10.7606 1.46401 9.46739C1.20681 8.17419 1.33885 6.83376 1.84344 5.61561C2.34804 4.39745 3.20252 3.35628 4.29884 2.62376C5.39516 1.89123 6.68408 1.50024 8.00261 1.50024C9.32113 1.50024 10.6101 1.89123 11.7064 2.62376C12.8027 3.35628 13.6572 4.39745 14.1618 5.61561C14.6664 6.83376 14.7984 8.17419 14.5412 9.46739C14.284 10.7606 13.6491 11.9485 12.7168 12.8808Z" stroke="#666666" stroke-width="1.66667" stroke-linecap="round" stroke-linejoin="round"/>
</svg>
