<svg width="20" height="20" viewBox="0 0 20 20" fill="none" xmlns="http://www.w3.org/2000/svg">
<path d="M5.16927 15.62C5.38943 14.9543 5.81388 14.375 6.38225 13.9645C6.95062 13.554 7.63397 13.3331 8.3351 13.3333H11.6684C12.3691 13.3331 13.0521 13.5537 13.6202 13.9637C14.1884 14.3738 14.6129 14.9524 14.8334 15.6175M10 10.8333C10.663 10.8333 11.2989 10.5699 11.7678 10.1011C12.2366 9.63225 12.5 8.99637 12.5 8.33333C12.5 7.67029 12.2366 7.0344 11.7678 6.56556C11.2989 6.09672 10.663 5.83333 10 5.83333C9.33696 5.83333 8.70107 6.09672 8.23223 6.56556C7.76339 7.0344 7.5 7.67029 7.5 8.33333C7.5 8.99637 7.76339 9.63225 8.23223 10.1011C8.70107 10.5699 9.33696 10.8333 10 10.8333ZM16.5625 5.22498C17.1458 5.55665 17.5042 6.17748 17.5 6.84832V12.9183C17.5 13.5925 17.1308 14.2142 16.535 14.5417L10.91 18.1C10.6311 18.2531 10.3181 18.3334 10 18.3334C9.68186 18.3334 9.36887 18.2531 9.09 18.1L3.465 14.5417C3.17347 14.3823 2.9301 14.1476 2.76034 13.862C2.59058 13.5765 2.50067 13.2505 2.5 12.9183V6.84748C2.5 6.17332 2.86917 5.55248 3.465 5.22498L9.09 1.90832C9.37711 1.75001 9.69964 1.66699 10.0275 1.66699C10.3554 1.66699 10.6779 1.75001 10.965 1.90832L16.59 5.22498H16.5625Z" stroke="black" stroke-width="1.66667" stroke-linecap="round" stroke-linejoin="round"/>
</svg>
