<svg width="22" height="22" viewBox="0 0 22 22" fill="none" xmlns="http://www.w3.org/2000/svg">
<path d="M18.2188 5.7475C18.5338 5.92667 18.7954 6.18656 18.9767 6.50041C19.1579 6.81426 19.2523 7.17074 19.25 7.53317V14.2102C19.25 14.9517 18.8439 15.6356 18.1885 15.9958L12.001 19.91C11.6942 20.0784 11.35 20.1667 11 20.1667C10.6501 20.1667 10.3058 20.0784 9.999 19.91L3.8115 15.9958C3.49082 15.8206 3.22311 15.5624 3.03638 15.2483C2.84964 14.9341 2.75073 14.5756 2.75 14.2102V7.53225C2.75 6.79067 3.15608 6.10775 3.8115 5.7475L9.999 2.09917C10.3148 1.92503 10.6696 1.83371 11.0303 1.83371C11.3909 1.83371 11.7457 1.92503 12.0615 2.09917L18.249 5.7475H18.2188Z" stroke="#666666" stroke-width="1.83333" stroke-linecap="round" stroke-linejoin="round"/>
<path d="M8.25 11C8.25 11.7294 8.53973 12.4288 9.05546 12.9446C9.57118 13.4603 10.2707 13.75 11 13.75C11.7293 13.75 12.4288 13.4603 12.9445 12.9446C13.4603 12.4288 13.75 11.7294 13.75 11C13.75 10.2707 13.4603 9.57119 12.9445 9.05547C12.4288 8.53974 11.7293 8.25001 11 8.25001C10.2707 8.25001 9.57118 8.53974 9.05546 9.05547C8.53973 9.57119 8.25 10.2707 8.25 11Z" stroke="#666666" stroke-width="1.83333" stroke-linecap="round" stroke-linejoin="round"/>
</svg>
