<svg width="18" height="18" viewBox="0 0 18 18" fill="none" xmlns="http://www.w3.org/2000/svg">
<path d="M6.18513 5.505L1.40013 6.19875L1.31538 6.216C1.18708 6.25006 1.07012 6.31756 0.976445 6.4116C0.882768 6.50565 0.815729 6.62287 0.782173 6.7513C0.748617 6.87973 0.749747 7.01476 0.785447 7.14261C0.821147 7.27046 0.890139 7.38654 0.985376 7.479L4.45188 10.8533L3.63438 15.6195L3.62463 15.702C3.61677 15.8347 3.64433 15.9671 3.70446 16.0856C3.7646 16.2042 3.85516 16.3046 3.96688 16.3766C4.07859 16.4487 4.20744 16.4897 4.34024 16.4956C4.47303 16.5014 4.605 16.4719 4.72263 16.41L9.00213 14.16L13.2719 16.41L13.3469 16.4445C13.4707 16.4933 13.6052 16.5082 13.7367 16.4878C13.8682 16.4674 13.9919 16.4124 14.0951 16.3285C14.1983 16.2445 14.2773 16.1346 14.324 16.01C14.3707 15.8854 14.3834 15.7506 14.3609 15.6195L13.5426 10.8533L17.0106 7.47825L17.0691 7.4145C17.1527 7.31158 17.2075 7.18834 17.2279 7.05735C17.2483 6.92636 17.2337 6.79229 17.1854 6.6688C17.1372 6.54532 17.0571 6.43683 16.9532 6.35439C16.8494 6.27195 16.7256 6.21851 16.5944 6.1995L11.8094 5.505L9.67038 1.17C9.60848 1.0444 9.51266 0.938639 9.39377 0.864681C9.27487 0.790723 9.13765 0.751526 8.99763 0.751526C8.8576 0.751526 8.72038 0.790723 8.60148 0.864681C8.48259 0.938639 8.38677 1.0444 8.32488 1.17L6.18513 5.505Z" fill="#FFA500"/>
</svg>
